{
	"asset":	{
		"version":	"2.0",
		"generator":	"exported by Modelo"
	},
	"scene":	0,
	"scenes":	[{
			"nodes":	[0]
		}],
	"textures":	[{
			"source":	0,
			"name":	"d75805820.jpg",
			"sampler":	0
		}, {
			"source":	1,
			"name":	"d53554380.jpg",
			"sampler":	0
		}],
	"samplers":	[{
			"magFilter":	9729,
			"minFilter":	9984,
			"wrapS":	10497,
			"wrapT":	10497
		}],
	"images":	[{
			"uri":	"d75805820.jpg"
		}, {
			"uri":	"d53554380.jpg"
		}],
	"materials":	[{
			"pbrMetallicRoughness":	{
				"baseColorTexture":	{
					"index":	0
				},
				"metallicFactor":	0,
				"roughnessFactor":	1
			},
			"name":	"[Roofing Shingles GAF Estates]",
			"doubleSided":	true
		}, {
			"pbrMetallicRoughness":	{
				"baseColorTexture":	{
					"index":	1
				},
				"metallicFactor":	0,
				"roughnessFactor":	1
			},
			"name":	"[Wood Cherry Original]",
			"doubleSided":	true
		}, {
			"pbrMetallicRoughness":	{
				"baseColorFactor":	[0.39215686917305, 0.58431375026702881, 0.929411768913269, 0.49803921580314636],
				"metallicFactor":	0,
				"roughnessFactor":	1
			},
			"name":	"[Translucent Glass Blue]",
			"doubleSided":	true,
			"alphaMode":	"BLEND"
		}, {
			"pbrMetallicRoughness":	{
				"baseColorFactor":	[1, 1, 1, 1],
				"metallicFactor":	0,
				"roughnessFactor":	1
			},
			"name":	"mxdefault",
			"doubleSided":	true
		}, {
			"pbrMetallicRoughness":	{
				"baseColorFactor":	[0, 0, 0, 1],
				"metallicFactor":	0,
				"roughnessFactor":	1
			},
			"name":	"mxdefaultline",
			"doubleSided":	true
		}],
	"meshes":	[{
			"primitives":	[{
					"attributes":	{
						"POSITION":	1,
						"NORMAL":	2
					},
					"indices":	0,
					"material":	3
				}]
		}, {
			"primitives":	[{
					"attributes":	{
						"POSITION":	4,
						"NORMAL":	5
					},
					"indices":	3,
					"material":	2
				}]
		}, {
			"primitives":	[{
					"attributes":	{
						"POSITION":	7,
						"NORMAL":	8,
						"TEXCOORD_0":	9
					},
					"indices":	6,
					"material":	1
				}]
		}, {
			"primitives":	[{
					"attributes":	{
						"POSITION":	11,
						"NORMAL":	12,
						"TEXCOORD_0":	13
					},
					"indices":	10,
					"material":	0
				}]
		}],
	"accessors":	[{
			"bufferView":	0,
			"byteOffset":	0,
			"componentType":	5125,
			"count":	1221,
			"type":	"SCALAR",
			"name":	"accessorIndices_0",
			"max":	[696],
			"min":	[0]
		}, {
			"bufferView":	1,
			"byteOffset":	0,
			"componentType":	5126,
			"count":	697,
			"type":	"VEC3",
			"name":	"accessorPositions",
			"max":	[7.3499975204467773, 6.9199976921081543, 2.2799990177154541],
			"min":	[0.32999983429908752, -0.079999968409538269, 0]
		}, {
			"bufferView":	2,
			"byteOffset":	0,
			"componentType":	5126,
			"count":	697,
			"type":	"VEC3",
			"name":	"accessorNormals",
			"max":	[1, 1, 1],
			"min":	[-1, -1, -1]
		}, {
			"bufferView":	0,
			"byteOffset":	4884,
			"componentType":	5125,
			"count":	264,
			"type":	"SCALAR",
			"name":	"accessorIndices_3",
			"max":	[175],
			"min":	[0]
		}, {
			"bufferView":	1,
			"byteOffset":	8364,
			"componentType":	5126,
			"count":	176,
			"type":	"VEC3",
			"name":	"accessorPositions",
			"max":	[7.21999740600586, 6.84999704360962, 1.9300098419189453],
			"min":	[0.459999829530716, 0.099999956786632538, 0.79433685541152954]
		}, {
			"bufferView":	2,
			"byteOffset":	8364,
			"componentType":	5126,
			"count":	176,
			"type":	"VEC3",
			"name":	"accessorNormals",
			"max":	[1, 1, 0],
			"min":	[-1, -1, 0]
		}, {
			"bufferView":	0,
			"byteOffset":	5940,
			"componentType":	5125,
			"count":	438,
			"type":	"SCALAR",
			"name":	"accessorIndices_6",
			"max":	[143],
			"min":	[0]
		}, {
			"bufferView":	1,
			"byteOffset":	10476,
			"componentType":	5126,
			"count":	144,
			"type":	"VEC3",
			"name":	"accessorPositions",
			"max":	[7.24999713897705, 6.8199973106384277, 2.0799989700317383],
			"min":	[0.42999985814094543, 0, 0]
		}, {
			"bufferView":	2,
			"byteOffset":	10476,
			"componentType":	5126,
			"count":	144,
			"type":	"VEC3",
			"name":	"accessorNormals",
			"max":	[1, 1, 0],
			"min":	[-1, -1, 0]
		}, {
			"bufferView":	3,
			"byteOffset":	0,
			"componentType":	5126,
			"count":	144,
			"type":	"VEC2",
			"name":	"accessorUVs",
			"max":	[2.3109536170959473, 1],
			"min":	[-1.4552191495895386, -0.13735783100128174]
		}, {
			"bufferView":	0,
			"byteOffset":	7692,
			"componentType":	5125,
			"count":	45,
			"type":	"SCALAR",
			"name":	"accessorIndices_10",
			"max":	[24],
			"min":	[0]
		}, {
			"bufferView":	1,
			"byteOffset":	12204,
			"componentType":	5126,
			"count":	25,
			"type":	"VEC3",
			"name":	"accessorPositions",
			"max":	[7.3499975204467773, 6.9199976921081543, 3.4699983596801758],
			"min":	[0.32999983429908752, 0, 2.2799990177154541]
		}, {
			"bufferView":	2,
			"byteOffset":	12204,
			"componentType":	5126,
			"count":	25,
			"type":	"VEC3",
			"name":	"accessorNormals",
			"max":	[0.70078742504119873, 0.70078742504119873, -0.70078742504119873],
			"min":	[-0.70078742504119873, -0.70078742504119873, -1]
		}, {
			"bufferView":	3,
			"byteOffset":	1152,
			"componentType":	5126,
			"count":	25,
			"type":	"VEC2",
			"name":	"accessorUVs",
			"max":	[13.153185844421387, 9.7308864593505859],
			"min":	[-13.153185844421387, -12.778539657592773]
		}],
	"nodes":	[{
			"children":	[1, 2, 3, 4],
			"matrix":	[1, 0, 0, 0, 0, 0, -1, 0, 0, 1, 0, 0, 0, 0, 0, 1]
		}, {
			"mesh":	1
		}, {
			"mesh":	0
		}, {
			"mesh":	3
		}, {
			"mesh":	2
		}],
	"bufferViews":	[{
			"buffer":	0,
			"byteOffset":	0,
			"byteLength":	7872,
			"name":	"bufferViewIndex"
		}, {
			"buffer":	0,
			"byteOffset":	7872,
			"byteLength":	12504,
			"byteStride":	12,
			"name":	"bufferViewPosition"
		}, {
			"buffer":	0,
			"byteOffset":	20376,
			"byteLength":	12504,
			"byteStride":	12,
			"name":	"bufferViewNormal"
		}, {
			"buffer":	0,
			"byteOffset":	32880,
			"byteLength":	1352,
			"byteStride":	8,
			"name":	"bufferViewUV"
		}],
	"buffers":	[{
			"byteLength":	34232,
			"uri":	"535669.bin"
		}]
}